<!--public/airplane.svg -->
<svg xmlns="http://www.w3.org/2000/svg" viewBox="0 0 512 512" width="512" height="512">
    <g fill="#4299e1">
        <path
            d="M497.8 86.4L428 14.8c-7.9-7.9-20.7-7.9-28.6 0L314.8 99.6l-120-48C184.9 47.2 174 49 166 55L76.8 144.2c-11.9 11.9-9.5 32.5 5.6 41.2l87.5 48.4L120 284l-44-22c-6.2-3.1-13.8-1.2-17.8 4.7l-32 48c-3.7 5.5-2.9 12.8 1.9 17.6l72 72c4.8 4.8 12.1 5.6 17.6 1.9l48-32c5.9-3.9 7.8-11.5 4.7-17.8l-22-44 50.2-50.2 48.4 87.5c8.7 15.1 29.3 17.5 41.2 5.6L377 266.1c6-8 7.8-18.9 3.4-28.8l-48-120 84.8-84.8c7.8-7.6 7.8-20.4 0-28.2zM48 464c-8.8 0-16-7.2-16-16s7.2-16 16-16 16 7.2 16 16-7.2 16-16 16z" />
    </g>
</svg>